<svg xmlns="http://www.w3.org/2000/svg" width="1200" height="300" viewBox="0 0 1200 300" role="img" aria-labelledby="title desc">
  <title id="title">Heitor Araujo - Data Engineering e Full Stack Developer</title>
  <desc id="desc">Banner verde escuro com nome, especialidades e símbolos de software e dados.</desc>
  <defs>
    <linearGradient id="bg" x1="0" y1="0" x2="1" y2="1">
      <stop offset="0" stop-color="#071b1a"/>
      <stop offset="0.55" stop-color="#0b2223"/>
      <stop offset="1" stop-color="#111827"/>
    </linearGradient>
    <linearGradient id="accent" x1="0" y1="0" x2="1" y2="0">
      <stop offset="0" stop-color="#34d399"/>
      <stop offset="1" stop-color="#22d3ee"/>
    </linearGradient>
    <pattern id="grid" width="36" height="36" patternUnits="userSpaceOnUse">
      <path d="M36 0H0V36" fill="none" stroke="#5eead4" stroke-opacity=".07"/>
    </pattern>
  </defs>
  <rect width="1200" height="300" rx="18" fill="url(#bg)"/>
  <rect width="1200" height="300" rx="18" fill="url(#grid)"/>
  <circle cx="1050" cy="75" r="190" fill="#10b981" opacity=".08"/>
  <circle cx="1120" cy="270" r="150" fill="#22d3ee" opacity=".06"/>
  <g transform="translate(70 70)">
    <rect width="112" height="112" rx="26" fill="#0f2f2d" stroke="#34d399" stroke-width="2"/>
    <path d="M30 82V30h13l29 32V30h12v52H72L43 50v32z" fill="url(#accent)"/>
  </g>
  <text x="220" y="105" fill="#f8fafc" font-family="Segoe UI, Arial, sans-serif" font-size="48" font-weight="700">Heitor Araujo</text>
  <text x="222" y="150" fill="#5eead4" font-family="Segoe UI, Arial, sans-serif" font-size="23" font-weight="600">Data Engineering · Full Stack Developer</text>
  <text x="222" y="192" fill="#cbd5e1" font-family="Segoe UI, Arial, sans-serif" font-size="17">Software, dados e inteligência transformados em produtos reais.</text>
  <g transform="translate(830 98)" fill="none" stroke-linecap="round" stroke-linejoin="round">
    <path d="M0 42h74M37 5v74M12 17l50 50M62 17L12 67" stroke="#34d399" stroke-width="3" opacity=".85"/>
    <ellipse cx="37" cy="42" rx="78" ry="32" stroke="#22d3ee" stroke-width="2" opacity=".5"/>
    <ellipse cx="37" cy="42" rx="32" ry="78" stroke="#22d3ee" stroke-width="2" opacity=".5"/>
    <circle cx="37" cy="42" r="7" fill="#f8fafc" stroke="none"/>
  </g>
  <g transform="translate(1045 92)" stroke="#5eead4" stroke-width="3" fill="#0f2f2d">
    <ellipse cx="55" cy="12" rx="50" ry="12"/>
    <path d="M5 12v35c0 7 22 13 50 13s50-6 50-13V12"/>
    <path d="M5 47v35c0 7 22 13 50 13s50-6 50-13V47"/>
    <path d="M5 82v35c0 7 22 13 50 13s50-6 50-13V82"/>
  </g>
  <rect x="70" y="248" width="1060" height="2" fill="url(#accent)" opacity=".7"/>
</svg>
